<svg width="13" height="13" viewBox="0 0 13 13" fill="none" xmlns="http://www.w3.org/2000/svg">
<path d="M5.57031 1.08203L6.17188 0.480469C6.44531 0.234375 6.85547 0.234375 7.10156 0.480469L12.4336 5.78516C12.6797 6.05859 12.6797 6.46875 12.4336 6.71484L7.10156 12.0469C6.85547 12.293 6.44531 12.293 6.17188 12.0469L5.57031 11.4453C5.32422 11.1719 5.32422 10.7617 5.57031 10.4883L8.87891 7.34375H1.03125C0.648438 7.34375 0.375 7.07031 0.375 6.6875V5.8125C0.375 5.45703 0.648438 5.15625 1.03125 5.15625H8.87891L5.57031 2.03906C5.32422 1.76562 5.29688 1.35547 5.57031 1.08203Z" fill="#AE9A91"/>
</svg>
