<svg width="22" height="22" viewBox="0 0 22 22" fill="none" xmlns="http://www.w3.org/2000/svg">
<path fill-rule="evenodd" clip-rule="evenodd" d="M14.6668 1.83337C17.7044 1.83337 20.1668 4.29581 
20.1668 7.33337V14.6667C20.1668 17.7043 17.7044 20.1667 14.6668 20.1667H7.3335C4.29593 20.1667 1.8335 
17.7043 1.8335 14.6667V7.33337C1.8335 4.29581 4.29593 1.83337 7.3335 1.83337L14.6668 1.83337ZM13.7502 
4.58337H8.25016C6.28648 4.58337 4.68334 6.12701 4.58798 8.06704L4.5835 8.25004V13.75C4.5835 15.7137 
6.12713 17.3169 8.06716 17.4122L8.25016 17.4167H13.7502C15.7138 17.4167 17.317 15.8731 17.4123 
13.933L17.4168 13.75V8.25004C17.4168 6.28636 15.8732 4.68322 13.9332 4.58786L13.7502 4.58337Z" 
fill="white"/>
</svg>
