<svg width="40" height="40" viewBox="0 0 40 40" fill="none" xmlns="http://www.w3.org/2000/svg">
<rect width="40" height="40" rx="20" fill="#9149ED"/>
<path d="M14.0511 29V26.7159L20.1108 20.7756C20.6903 20.1903 21.1733 19.6705 21.5597 19.2159C21.946 18.7614 22.2358 18.321 22.429 17.8949C22.6222 17.4687 22.7188 17.0142 22.7188 16.5312C22.7188 15.9801 22.5938 15.5085 22.3438 15.1165C22.0938 14.7188 21.75 14.4119 21.3125 14.196C20.875 13.9801 20.3778 13.8722 19.821 13.8722C19.2472 13.8722 18.7443 13.9915 18.3125 14.2301C17.8807 14.4631 17.5455 14.7955 17.3068 15.2273C17.0739 15.6591 16.9574 16.1733 16.9574 16.7699H13.9489C13.9489 15.6619 14.2017 14.6989 14.7074 13.8807C15.2131 13.0625 15.9091 12.429 16.7955 11.9801C17.6875 11.5312 18.7102 11.3068 19.8636 11.3068C21.0341 11.3068 22.0625 11.5256 22.9489 11.9631C23.8352 12.4006 24.5227 13 25.0114 13.7614C25.5057 14.5227 25.7528 15.392 25.7528 16.3693C25.7528 17.0227 25.6278 17.6648 25.3778 18.2955C25.1278 18.9261 24.6875 19.625 24.0568 20.392C23.4318 21.1591 22.554 22.0881 21.4233 23.179L18.4148 26.2386V26.358H26.017V29H14.0511Z" fill="white"/>
</svg>
