<svg width="100" height="18" viewBox="0 0 100 18" fill="none" xmlns="http://www.w3.org/2000/svg">
<g clip-path="url(#clip0_15_945)">
<mask id="mask0_15_945" style="mask-type:luminance" maskUnits="userSpaceOnUse" x="0" y="0" width="100" height="18">
<path d="M99.318 0.388672H0.818359V17.6112H99.318V0.388672Z" fill="white"/>
</mask>
<g mask="url(#mask0_15_945)">
<path d="M13.5366 3.23701C13.5366 3.23701 11.6156 1.64724 9.16465 1.64724C9.16465 1.64724 6.25008 1.64724 4.19663 3.76694C4.19663 3.76694 2.14317 5.88663 2.14317 8.80121C2.14317 8.80121 2.14317 11.7158 4.19663 13.8355C4.19663 13.8355 6.25007 15.8889 9.16465 15.8889C9.16465 15.8889 11.6156 15.8889 13.5366 14.3654L14.4639 15.2928C14.4639 15.2928 12.1455 17.2138 9.16465 17.2138C9.16465 17.2138 5.72016 17.2138 3.26926 14.6966C3.26926 14.6966 0.818359 12.2457 0.818359 8.80121C0.818359 8.80121 0.818359 5.35671 3.26926 2.90581C3.26926 2.90581 5.72015 0.388672 9.16465 0.388672C9.16465 0.388672 12.1455 0.388672 14.4639 2.2434L13.5366 3.23701Z" fill="#1B1B1B" fill-opacity="0.55"/>
<path d="M20.2267 6.34985C17.9745 6.34985 16.3847 7.93962 16.3847 7.93962C14.7949 9.5294 14.7949 11.7816 14.7949 11.7816C14.7949 14.0337 16.3847 15.6235 16.3847 15.6235C17.9745 17.2133 20.2267 17.2133 20.2267 17.2133C22.81 17.2133 24.5323 15.0274 24.5323 15.0274V16.9483H25.7246V6.68106H24.5323V8.46955C22.8763 6.34985 20.2267 6.34985 20.2267 6.34985ZM20.2267 7.54218C21.9489 7.54218 23.2075 8.73451 23.2075 8.73451C24.4661 9.99308 24.4661 11.7816 24.4661 11.7816C24.4661 13.5038 23.2075 14.7624 23.2075 14.7624C21.9489 16.021 20.2267 16.021 20.2267 16.021C18.4382 16.021 17.2458 14.7624 17.2458 14.7624C15.9873 13.5038 15.9873 11.7816 15.9873 11.7816C15.9873 9.99308 17.2458 8.73451 17.2458 8.73451C18.4382 7.54218 20.2267 7.54218 20.2267 7.54218Z" fill="#1B1B1B" fill-opacity="0.55"/>
<path d="M42.8146 1.97885C42.8146 1.97885 42.086 1.97885 42.086 1.25021C42.086 1.25021 42.086 0.455322 42.8146 0.455322C42.8146 0.455322 43.6095 0.455322 43.6095 1.25021C43.6095 1.25021 43.6095 1.97885 42.8146 1.97885Z" fill="#1B1B1B" fill-opacity="0.55"/>
<path d="M29.3016 0.455322V16.9492H28.043V0.455322H29.3016Z" fill="#1B1B1B" fill-opacity="0.55"/>
<path d="M35.5947 14.6967L39.2379 6.68164H40.5627L35.5947 17.6113L30.4942 6.68164H31.8852L35.5947 14.6967Z" fill="#1B1B1B" fill-opacity="0.55"/>
<path d="M46.8544 7.6754C46.8544 7.6754 47.848 6.35059 49.7689 6.35059C49.7689 6.35059 51.4912 6.35059 52.6835 7.54291C52.6835 7.54291 53.8759 8.73524 53.8759 10.4575V16.9491H52.6835V10.4575C52.6835 10.4575 52.6835 9.19893 51.8224 8.3378C51.8224 8.3378 51.0275 7.47667 49.7689 7.47667C49.7689 7.47667 48.5766 7.47667 47.7155 8.27156C47.7155 8.27156 46.8544 9.13269 46.8544 10.4575V16.9491H45.662V6.68179H46.8544V7.6754Z" fill="#1B1B1B" fill-opacity="0.55"/>
<path d="M43.411 6.68164V16.9489H42.2188V6.68164H43.411Z" fill="#1B1B1B" fill-opacity="0.55"/>
<path d="M69.7079 0.521563L63.1501 7.60929L69.6417 16.9492H68.1181L62.289 8.53666L61.0967 9.79523V16.9492H59.9043V0.455322H61.0967V7.9405L67.9857 0.521563H69.7079Z" fill="#1B1B1B" fill-opacity="0.55"/>
<path d="M72.7565 0.455322V16.9492H71.498V0.455322H72.7565Z" fill="#1B1B1B" fill-opacity="0.55"/>
<path d="M80.1077 6.34985C77.8555 6.34985 76.2657 7.93962 76.2657 7.93962C74.7422 9.46316 74.7422 11.7816 74.7422 11.7816C74.7422 14.0337 76.2657 15.5573 76.2657 15.5573C77.8555 17.147 80.1077 17.147 80.1077 17.147C83.5522 17.147 85.0095 14.1 85.0095 14.1L83.9496 13.6363C82.7573 15.9547 80.1077 15.9547 80.1077 15.9547C78.3854 15.9547 77.1931 14.7624 77.1931 14.7624C75.9345 13.5701 75.9345 11.8478 75.9345 11.8478H85.5394V11.7816C85.5394 9.46316 83.9496 7.93962 83.9496 7.93962C82.3599 6.34985 80.1077 6.34985 80.1077 6.34985ZM80.1077 7.47594C81.565 7.47594 82.6911 8.40331 82.6911 8.40331C83.8172 9.26443 84.2146 10.5892 84.2146 10.5892H76.067C76.4645 9.26443 77.5243 8.40331 77.5243 8.40331C78.7166 7.47594 80.1077 7.47594 80.1077 7.47594Z" fill="#1B1B1B" fill-opacity="0.55"/>
<path d="M87.3946 1.25021C87.3946 1.25021 87.3946 0.455322 88.1232 0.455322C88.1232 0.455322 88.8518 0.455322 88.8518 1.25021C88.8518 1.25021 88.8518 1.97885 88.1232 1.97885C88.1232 1.97885 87.3946 1.97885 87.3946 1.25021Z" fill="#1B1B1B" fill-opacity="0.55"/>
<path d="M92.2957 6.68179V7.6754C92.2957 7.6754 93.2231 6.35059 95.2103 6.35059C95.2103 6.35059 96.9325 6.35059 98.1249 7.54291C98.1249 7.54291 99.3172 8.73524 99.3172 10.4575V16.9491H98.0586V10.4575C98.0586 10.4575 98.0585 9.19893 97.2636 8.3378C97.2636 8.3378 96.4026 7.47667 95.2103 7.47667C95.2103 7.47667 93.9517 7.47667 93.1568 8.27156C93.1568 8.27156 92.2957 9.13269 92.2957 10.4575V16.9491H91.037V6.68179H92.2957Z" fill="#1B1B1B" fill-opacity="0.55"/>
<path d="M88.7196 6.68164V16.9489H87.5273V6.68164H88.7196Z" fill="#1B1B1B" fill-opacity="0.55"/>
</g>
</g>
<defs>
<clipPath id="clip0_15_945">
<rect width="99" height="18" fill="white" transform="translate(0.484375)"/>
</clipPath>
</defs>
</svg>
