<svg width="89" height="30" viewBox="0 0 89 30" fill="none" xmlns="http://www.w3.org/2000/svg">
<g clip-path="url(#clip0_15_1021)">
<mask id="mask0_15_1021" style="mask-type:luminance" maskUnits="userSpaceOnUse" x="1" y="0" width="88" height="30">
<path d="M88.5511 0H1.44922V30H88.5511V0Z" fill="white"/>
</mask>
<g mask="url(#mask0_15_1021)">
<path d="M80.1005 12.226C81.1483 12.226 81.9978 11.3765 81.9978 10.3286C81.9978 9.28076 81.1483 8.43127 80.1005 8.43127C79.0526 8.43127 78.2031 9.28076 78.2031 10.3286C78.2031 11.3765 79.0526 12.226 80.1005 12.226Z" fill="#1B1B1B" fill-opacity="0.55"/>
<path d="M53.0007 18.419C53.9314 18.419 54.4684 17.7209 54.4326 17.0407C54.4147 16.6827 54.3789 16.45 54.3431 16.271C53.7703 13.8009 51.7656 11.9751 49.3849 11.9751C46.5567 11.9751 44.2656 14.5348 44.2656 17.6851C44.2656 20.8355 46.5567 23.3951 49.3849 23.3951C51.157 23.3951 52.4279 22.7508 53.3407 21.7305C53.7882 21.2293 53.6987 20.4596 53.1618 20.0837C52.7143 19.7794 52.1594 19.8868 51.7477 20.2269C51.3539 20.567 50.6021 21.2472 49.3849 21.2472C47.9529 21.2472 46.7357 20.0121 46.4672 18.3832H53.0007V18.419ZM49.367 14.141C50.6558 14.141 51.7656 15.1434 52.1773 16.5216H46.5567C46.9684 15.1255 48.0782 14.141 49.367 14.141Z" fill="#1B1B1B" fill-opacity="0.55"/>
<path d="M44.3721 13.1031C44.3721 12.5661 43.9783 12.1365 43.4772 12.047C41.9199 11.8143 40.4521 12.3871 39.6108 13.4432V13.3C39.6108 12.6377 39.0738 12.226 38.5368 12.226C37.9461 12.226 37.4628 12.7093 37.4628 13.3V22.0709C37.4628 22.6437 37.8924 23.1449 38.4652 23.1807C39.0917 23.2165 39.6108 22.7332 39.6108 22.1067V17.5781C39.6108 15.5733 41.1144 13.9265 43.1908 14.1592C43.2624 14.1592 43.334 14.1592 43.4056 14.1592C43.9426 14.1234 44.3721 13.658 44.3721 13.1031Z" fill="#1B1B1B" fill-opacity="0.55"/>
<path d="M81.1753 14.249C81.1753 13.6583 80.692 13.175 80.1013 13.175C79.5106 13.175 79.0273 13.6583 79.0273 14.249C79.0273 14.2848 79.0273 21.7669 79.0273 22.107C79.0273 22.6977 79.5106 23.181 80.1013 23.181C80.692 23.181 81.1753 22.6977 81.1753 22.107C81.1753 21.7848 81.1753 14.3027 81.1753 14.249Z" fill="#1B1B1B" fill-opacity="0.55"/>
<path d="M65.2072 8.30604C65.2072 7.71535 64.7239 7.23206 64.1332 7.23206C63.5425 7.23206 63.0592 7.71535 63.0592 8.30604V13.0853C62.3253 12.3514 61.4124 11.9934 60.3206 11.9934C57.4924 11.9934 55.2012 14.5531 55.2012 17.7034C55.2012 20.8538 57.4924 23.4134 60.3206 23.4134C61.4124 23.4134 62.3432 23.0375 63.0771 22.3037C63.1666 22.8048 63.6141 23.1807 64.1332 23.1807C64.7239 23.1807 65.2072 22.6974 65.2072 22.1068V8.30604ZM60.3385 21.2834C58.6917 21.2834 57.3671 19.6903 57.3671 17.7034C57.3671 15.7344 58.6917 14.1235 60.3385 14.1235C61.9852 14.1235 63.3098 15.7165 63.3098 17.7034C63.3098 19.6903 61.9673 21.2834 60.3385 21.2834Z" fill="#1B1B1B" fill-opacity="0.55"/>
<path d="M76.4122 8.30604C76.4122 7.71535 75.9289 7.23206 75.3382 7.23206C74.7475 7.23206 74.2643 7.71535 74.2643 8.30604V13.0853C73.5304 12.3514 72.6175 11.9934 71.5256 11.9934C68.6975 11.9934 66.4062 14.5531 66.4062 17.7034C66.4062 20.8538 68.6975 23.4134 71.5256 23.4134C72.6175 23.4134 73.5483 23.0375 74.2822 22.3037C74.3717 22.8048 74.8191 23.1807 75.3382 23.1807C75.9289 23.1807 76.4122 22.6974 76.4122 22.1068V8.30604ZM71.5256 21.2834C69.8789 21.2834 68.5543 19.6903 68.5543 17.7034C68.5543 15.7344 69.8789 14.1235 71.5256 14.1235C73.1724 14.1235 74.4969 15.7165 74.4969 17.7034C74.4969 19.6903 73.1724 21.2834 71.5256 21.2834Z" fill="#1B1B1B" fill-opacity="0.55"/>
<path d="M86.6153 22.1245V14.1412H87.564C88.0652 14.1412 88.5127 13.7653 88.5485 13.2462C88.5843 12.6913 88.1368 12.226 87.5998 12.226H86.6153V10.7224C86.6153 10.1496 86.1858 9.64838 85.613 9.61259C84.9865 9.57679 84.4674 10.0601 84.4674 10.6866V12.2439H83.5724C83.0712 12.2439 82.6237 12.6197 82.5879 13.1388C82.5521 13.6937 82.9996 14.1591 83.5366 14.1591H84.4495V22.1424C84.4495 22.7331 84.9328 23.2164 85.5235 23.2164C86.15 23.1806 86.6153 22.7152 86.6153 22.1245Z" fill="#1B1B1B" fill-opacity="0.55"/>
<path fill-rule="evenodd" clip-rule="evenodd" d="M31.4492 15C31.4492 23.2843 24.7334 30 16.4493 30C8.16495 30 1.44922 23.2843 1.44922 15C1.44922 6.71573 8.16495 0 16.4493 0C24.7334 0 31.4492 6.71573 31.4492 15ZM24.271 12.8165C25.4703 12.8165 26.4547 13.7831 26.4547 15.0003C26.4547 15.8953 25.9178 16.665 25.166 17.0051C25.2018 17.2199 25.2197 17.4526 25.2197 17.6674C25.2197 21.0504 21.2995 23.7712 16.4667 23.7712C11.6336 23.7712 7.71365 21.0325 7.71365 17.6674C7.71365 17.4347 7.73155 17.2199 7.76735 17.0051C7.01556 16.665 6.47857 15.9132 6.47857 15.0182C6.47857 13.8189 7.44516 12.8344 8.66234 12.8344C9.25303 12.8344 9.79002 13.0671 10.1838 13.443C11.7052 12.3511 13.7996 11.653 16.1265 11.5814L17.2363 6.35472C17.2542 6.24732 17.3079 6.15782 17.3974 6.10412C17.469 6.05042 17.5764 6.03252 17.6838 6.05042L21.3174 6.82011C21.5681 6.30102 22.105 5.94302 22.7136 5.94302C23.5728 5.94302 24.271 6.64111 24.271 7.5003C24.271 8.35949 23.5728 9.05758 22.7136 9.05758C21.8723 9.05758 21.1922 8.39529 21.1563 7.5719L17.8986 6.87381L16.8962 11.5635C19.1873 11.653 21.2459 12.3511 22.7495 13.4251C23.1433 13.0492 23.6803 12.8165 24.271 12.8165ZM13.0119 15.0003C12.1528 15.0003 11.4548 15.6984 11.4548 16.5576C11.4548 17.4168 12.1528 18.1328 13.0119 18.1149C13.8711 18.1149 14.5693 17.4168 14.5693 16.5576C14.5693 15.6984 13.8711 15.0003 13.0119 15.0003ZM16.4667 21.838C17.0574 21.838 19.0979 21.7664 20.1719 20.6924C20.3151 20.5313 20.3151 20.2807 20.1719 20.1196C20.0107 19.9585 19.7602 19.9585 19.5991 20.1196C18.9369 20.7998 17.4869 21.0325 16.4667 21.0325C15.4464 21.0325 14.0143 20.7998 13.3342 20.1196C13.173 19.9585 12.9225 19.9585 12.7613 20.1196C12.6002 20.2807 12.6002 20.5313 12.7613 20.6924C13.8174 21.7485 15.8581 21.838 16.4667 21.838ZM18.3283 16.5755C18.3283 17.4347 19.0264 18.1328 19.8855 18.1328C20.7446 18.1328 21.4428 17.4168 21.4428 16.5755C21.4428 15.7163 20.7446 15.0182 19.8855 15.0182C19.0264 15.0182 18.3283 15.7163 18.3283 16.5755Z" fill="#1B1B1B" fill-opacity="0.55"/>
</g>
</g>
<defs>
<clipPath id="clip0_15_1021">
<rect width="88" height="30" fill="white" transform="translate(0.84375)"/>
</clipPath>
</defs>
</svg>
