<svg width="109" height="24" viewBox="0 0 109 24" fill="none" xmlns="http://www.w3.org/2000/svg">
<g clip-path="url(#clip0_15_979)">
<mask id="mask0_15_979" style="mask-type:luminance" maskUnits="userSpaceOnUse" x="1" y="0" width="108" height="24">
<path d="M108.434 0H1.28906V24H108.434V0Z" fill="white"/>
</mask>
<g mask="url(#mask0_15_979)">
<path d="M70.8198 8.73938C69.0132 7.15913 66.8324 6.38681 64.3102 6.38681C61.8234 6.38681 59.6426 7.16049 57.8346 8.73938C56.028 10.2852 55.1103 12.437 55.1103 15.1935C55.1103 17.9498 56.028 20.1004 57.8346 21.6805C59.6413 23.2265 61.8234 24 64.3102 24C66.8324 24 69.0132 23.2265 70.8198 21.6805C72.6606 20.1004 73.5796 17.9498 73.5796 15.1933C73.5796 12.4369 72.6592 10.2852 70.8198 8.73938ZM60.9044 18.7221C59.9512 17.8152 59.4719 16.6378 59.4719 15.1935C59.4719 13.7479 59.9471 12.5717 60.9044 11.6977C61.8576 10.7908 62.9828 10.3538 64.3088 10.3538C65.6361 10.3538 66.7955 10.7908 67.75 11.6977C68.7359 12.5717 69.2166 13.7479 69.2166 15.1935C69.2166 16.639 68.74 17.8152 67.75 18.7221C66.7968 19.596 65.6375 20.0331 64.3088 20.0331C62.9828 20.0331 61.8589 19.596 60.9044 18.7221ZM80.0224 23.5283V0.463315H75.729V23.5283H80.0224ZM93.8816 6.85651V16.0595C93.8816 18.2772 92.6662 19.7469 90.3529 19.7469C88.0014 19.7469 86.8188 18.2784 86.8188 16.0595V6.85651H82.5173V16.7656C82.5173 20.6043 84.9698 23.9984 90.3529 23.9984H90.3857C95.736 23.9984 98.1859 20.5294 98.1859 16.7656V6.85651H93.8816ZM50.5397 6.85651L46.2464 18.1502L41.9516 6.85651H37.3866L44.2376 23.5284H48.2592L55.1089 6.85651H50.5397ZM37.4084 14.7221C37.4084 12.3023 36.6246 10.3195 35.091 8.73938C33.5575 7.15913 31.5829 6.38681 29.1631 6.38681C26.6764 6.38681 24.5625 7.22778 22.8241 8.87396C21.1185 10.5215 20.2691 12.6046 20.2691 15.1935C20.2691 17.7822 21.1199 19.8997 22.79 21.5459C24.4956 23.1934 26.5398 24 28.9583 24C32.6753 24 35.2986 22.3869 36.8963 19.126L33.694 17.3109C32.6398 19.3611 31.1049 20.3695 29.0265 20.3695C26.4715 20.3695 24.6649 18.7565 24.3918 16.2019H37.407V14.7221H37.4084ZM29.0238 9.61325C31.4436 9.61325 33.0468 10.9572 33.4537 13.109H24.3904C25.0391 11.1262 26.8089 9.61325 29.0238 9.61325ZM20.2691 23.5285L14.5078 13.5801C18.1525 12.2692 19.9592 9.98397 19.9592 6.65598C19.9633 2.58871 16.6886 0 11.4762 0H1.28906V23.5285H5.78726V13.9827H9.60538L15.1237 23.5285H20.2691ZM11.4762 3.89829C14.1336 3.89829 15.4637 4.93978 15.4637 6.99C15.4637 9.04022 14.1323 10.0819 11.4762 10.0819H5.78726V3.89829H11.4762ZM105.465 23.9985C102.701 23.9985 100.46 21.7869 100.46 19.0572V2.35257H104.753V6.86303H108.435V10.2913H104.753V18.7855C104.753 19.5857 105.41 20.2334 106.223 20.2334H108.435V23.9985H105.465Z" fill="#1B1B1B" fill-opacity="0.55"/>
</g>
</g>
<defs>
<clipPath id="clip0_15_979">
<rect width="108" height="24" fill="white" transform="translate(0.5625)"/>
</clipPath>
</defs>
</svg>
