<svg width="102" height="30" viewBox="0 0 102 30" fill="none" xmlns="http://www.w3.org/2000/svg">
<g clip-path="url(#clip0_15_1044)">
<mask id="mask0_15_1044" style="mask-type:luminance" maskUnits="userSpaceOnUse" x="0" y="0" width="101" height="30">
<path d="M100.648 0.663208H0.0722656V29.3368H100.648V0.663208Z" fill="white"/>
</mask>
<g mask="url(#mask0_15_1044)">
<path d="M34.808 16.5795C33.9515 16.1062 33.5006 15.723 33.5006 15.182C33.5006 14.4833 34.1092 14.055 35.0785 14.055C36.2055 14.055 37.1973 14.5283 37.1973 14.5283L37.9862 12.1165C37.9862 12.1165 37.2649 11.553 35.1236 11.553C32.1482 11.553 30.0745 13.2661 30.0745 15.6554C30.0745 17.0078 31.0437 18.0447 32.3285 18.7885C33.3654 19.3746 33.7261 19.8028 33.7261 20.4114C33.7261 21.0651 33.2076 21.5835 32.2384 21.5835C30.7958 21.5835 29.4434 20.8397 29.4434 20.8397L28.6094 23.2516C28.6094 23.2516 29.8716 24.0856 31.9679 24.0856C35.0334 24.0856 37.2198 22.5753 37.2198 19.8705C37.2649 18.3828 36.1379 17.3459 34.808 16.5795Z" fill="#1B1B1B" fill-opacity="0.55"/>
<path d="M47.0252 11.5077C45.515 11.5077 44.3429 12.229 43.4187 13.3109L43.3736 13.2884L44.681 6.43604H41.2548L37.9414 23.8599H41.345L42.472 17.9092C42.9228 15.6551 44.0724 14.2802 45.1543 14.2802C45.9207 14.2802 46.2137 14.7986 46.2137 15.5424C46.2137 16.0158 46.1687 16.5793 46.056 17.0527L44.7712 23.8825H48.1748L49.5046 16.8498C49.6624 16.106 49.7526 15.2269 49.7526 14.6183C49.7977 12.6572 48.8059 11.5077 47.0252 11.5077Z" fill="#1B1B1B" fill-opacity="0.55"/>
<path d="M57.5055 11.5078C53.4032 11.5078 50.6758 15.2045 50.6758 19.3294C50.6758 21.9667 52.2987 24.108 55.3642 24.108C59.3989 24.108 62.1038 20.5015 62.1038 16.2864C62.1263 13.8295 60.7063 11.5078 57.5055 11.5078ZM55.8375 21.4708C54.6654 21.4708 54.1921 20.479 54.1921 19.2392C54.1921 17.2782 55.2064 14.1 57.0547 14.1C58.2719 14.1 58.6551 15.1369 58.6551 16.1512C58.6551 18.27 57.6408 21.4708 55.8375 21.4708Z" fill="#1B1B1B" fill-opacity="0.55"/>
<path d="M70.849 11.5078C68.5499 11.5078 67.2426 13.5365 67.2426 13.5365H67.1975L67.4004 11.7107H64.38C64.2222 12.9504 63.9517 14.8213 63.6812 16.2413L61.3145 28.6838H64.7181L65.6648 23.6347H65.7324C65.7324 23.6347 66.4311 24.0855 67.7385 24.0855C71.7507 24.0855 74.3654 19.9831 74.3654 15.8356C74.3654 13.559 73.351 11.5078 70.849 11.5078ZM67.6032 21.5384C66.7242 21.5384 66.2057 21.0425 66.2057 21.0425L66.7692 17.8643C67.175 15.7454 68.2794 14.3254 69.4515 14.3254C70.4884 14.3254 70.804 15.2946 70.804 16.1963C70.804 18.3827 69.4966 21.5384 67.6032 21.5384Z" fill="#1B1B1B" fill-opacity="0.55"/>
<path d="M79.2364 6.6167C78.1545 6.6167 77.2754 7.47324 77.2754 8.60027C77.2754 9.6146 77.9065 10.3134 78.8758 10.3134H78.9208C79.9802 10.3134 80.9044 9.59206 80.9269 8.32979C80.9495 7.31546 80.2733 6.6167 79.2364 6.6167Z" fill="#1B1B1B" fill-opacity="0.55"/>
<path d="M74.457 23.8596H77.8832L80.2048 11.7778H76.7562L74.457 23.8596Z" fill="#1B1B1B" fill-opacity="0.55"/>
<path d="M88.8603 11.7553H86.4936L86.6063 11.1918C86.8092 10.0197 87.4854 8.98282 88.6349 8.98282C89.2435 8.98282 89.7169 9.16315 89.7169 9.16315L90.3931 6.50336C90.3931 6.50336 89.807 6.21033 88.5448 6.21033C87.3276 6.21033 86.1329 6.54844 85.2088 7.33736C84.0367 8.32914 83.4957 9.7492 83.2252 11.1918L83.1351 11.7553H81.5572L81.0613 14.3249H82.6392L80.8359 23.8596H84.2395L86.0428 14.3249H88.387L88.8603 11.7553Z" fill="#1B1B1B" fill-opacity="0.55"/>
<path d="M97.0642 11.7778C97.0642 11.7778 94.9228 17.1425 93.9761 20.0728H93.931C93.8634 19.1261 93.097 11.7778 93.097 11.7778H89.5131L91.5643 22.8678C91.6094 23.1158 91.5868 23.2735 91.4967 23.4313C91.0909 24.1977 90.4373 24.9415 89.6484 25.4825C89.0172 25.9559 88.2959 26.2489 87.7324 26.4518L88.6791 29.337C89.3779 29.1792 90.7979 28.6157 92.0151 27.4886C93.5704 26.0235 95.013 23.792 96.4781 20.7265L100.648 11.7778H97.0642Z" fill="#1B1B1B" fill-opacity="0.55"/>
<path d="M16.8649 3.93313C16.8649 3.93313 16.5493 4.02329 16.0309 4.18108C15.9407 3.88805 15.8055 3.54994 15.6252 3.18929C15.0391 2.06226 14.16 1.45366 13.1232 1.45366C13.0555 1.45366 12.9879 1.45366 12.8978 1.4762C12.8752 1.43112 12.8301 1.40858 12.8076 1.3635C12.3568 0.867608 11.7707 0.642202 11.072 0.664743C9.71957 0.709824 8.36714 1.67907 7.2852 3.4147C6.51883 4.63189 5.93278 6.16465 5.77499 7.3593C4.2197 7.83265 3.13776 8.17076 3.11522 8.19331C2.32631 8.44125 2.30377 8.46379 2.21361 9.20763C2.14598 9.77115 0.0722656 25.6397 0.0722656 25.6397L17.1128 28.5926V3.91059C16.9776 3.91059 16.91 3.93313 16.8649 3.93313ZM12.9203 5.15032C12.0187 5.42081 11.0269 5.73638 10.0577 6.02941C10.3282 4.97 10.8691 3.91059 11.5003 3.21183C11.7482 2.96388 12.0863 2.67086 12.4695 2.49053C12.8527 3.30199 12.9428 4.40648 12.9203 5.15032ZM11.072 1.58891C11.3876 1.58891 11.658 1.65653 11.8834 1.79177C11.5228 1.9721 11.1622 2.26513 10.824 2.60323C9.96751 3.5274 9.31384 4.97 9.04335 6.34497C8.2319 6.59292 7.42044 6.84087 6.67661 7.06627C7.1725 4.90238 8.99827 1.63399 11.072 1.58891ZM8.4573 13.9862C8.54746 15.4288 12.3568 15.7444 12.5822 19.148C12.74 21.8304 11.1622 23.6562 8.88557 23.7914C6.13564 23.9717 4.62543 22.3488 4.62543 22.3488L5.21148 19.8693C5.21148 19.8693 6.72169 21.0189 7.93887 20.9287C8.72779 20.8837 9.02081 20.23 8.99827 19.7792C8.88557 17.8858 5.77499 17.9985 5.57213 14.8879C5.39181 12.2732 7.10488 9.6359 10.8917 9.38796C12.3568 9.29779 13.1006 9.65844 13.1006 9.65844L12.2441 12.9043C12.2441 12.9043 11.2749 12.4535 10.1253 12.5436C8.4573 12.6563 8.43476 13.7158 8.4573 13.9862ZM13.8219 4.87984C13.8219 4.20362 13.7318 3.23437 13.4162 2.42291C14.4531 2.62578 14.9489 3.77535 15.1743 4.47411C14.7686 4.58681 14.3178 4.72205 13.8219 4.87984Z" fill="#1B1B1B" fill-opacity="0.55"/>
<path d="M17.6309 28.548L24.7086 26.7899C24.7086 26.7899 21.6656 6.2103 21.6431 6.07505C21.6205 5.93981 21.5078 5.84965 21.3951 5.84965C21.2824 5.84965 19.2989 5.80456 19.2989 5.80456C19.2989 5.80456 18.0817 4.63245 17.6309 4.18164V28.548Z" fill="#1B1B1B" fill-opacity="0.55"/>
</g>
</g>
<defs>
<clipPath id="clip0_15_1044">
<rect width="101" height="30" fill="white" transform="translate(0.0625)"/>
</clipPath>
</defs>
</svg>
