<svg width="40" height="40" viewBox="0 0 40 40" fill="none" xmlns="http://www.w3.org/2000/svg">
<g clip-path="url(#clip0_15_1198)">
<path d="M40 20C40 8.9543 31.0457 0 20 0C8.9543 0 0 8.9543 0 20C0 31.0457 8.9543 40 20 40C31.0457 40 40 31.0457 40 20Z" fill="white" fill-opacity="0.12"/>
<mask id="mask0_15_1198" style="mask-type:luminance" maskUnits="userSpaceOnUse" x="11" y="11" width="18" height="18">
<path d="M28.75 11.25H11.25V28.75H28.75V11.25Z" fill="white"/>
</mask>
<g mask="url(#mask0_15_1198)">
<path d="M21.6649 18.6563L28.1796 11.25H26.6359L20.9791 17.6807L16.461 11.25H11.25L18.0822 20.9744L11.25 28.741H12.7939L18.7676 21.9499L23.539 28.741H28.75L21.6649 18.6563ZM19.5503 21.0601L18.8581 20.0918L13.3502 12.3866H15.7215L20.1664 18.6049L20.8587 19.5733L26.6366 27.6561H24.2653L19.5503 21.0601Z" fill="white"/>
</g>
</g>
<defs>
<clipPath id="clip0_15_1198">
<rect width="40" height="40" fill="white"/>
</clipPath>
</defs>
</svg>
