<svg width="233" height="52" viewBox="0 0 233 52" fill="none" xmlns="http://www.w3.org/2000/svg">
<g clip-path="url(#clip0_1_47)">
<path d="M42.25 52H9.75C4.36475 52 0 47.6353 0 42.25V9.75C0 4.36475 4.36475 0 9.75 0H42.25C47.6353 0 52 4.36475 52 9.75V42.25C52 47.6353 47.6353 52 42.25 52Z" fill="white"/>
<path d="M21.9375 39.0001H19.2286C17.5858 39.0001 16.25 37.6644 16.25 36.0215V34.3965C16.25 33.948 16.614 33.584 17.0625 33.584H24.1036C24.5521 33.584 24.9161 33.948 24.9161 34.3965V36.0215C24.9161 37.6644 23.5804 39.0001 21.9375 39.0001Z" fill="#AE9A91"/>
<path d="M23.8339 35.75C23.7754 35.75 23.7136 35.7451 23.6535 35.7354C23.0636 35.6362 22.6655 35.0773 22.763 34.4874L26 15.1677L15.1661 15.1661L18.4015 34.4874C18.5006 35.0773 18.1025 35.6362 17.511 35.7354C16.9211 35.8361 16.3621 35.4364 16.263 34.8449L13.0292 15.5252C13.0097 15.405 13 15.288 13 15.1661C13 13.9718 13.9718 13 15.1661 13H26C27.1944 13 28.1661 13.9718 28.1661 15.1661C28.1661 15.2864 28.1564 15.405 28.1369 15.5204L24.8999 34.8449C24.8138 35.3746 24.3539 35.75 23.8339 35.75Z" fill="#AE9A91"/>
<path d="M14.8958 19.5H26.2708V21.6661H14.8958V19.5Z" fill="#AE9A91"/>
<path d="M15.7083 24.916H25.4583V27.0821H15.7083V24.916Z" fill="#AE9A91"/>
<path opacity="0.6" d="M35.5991 25.0836C35.4382 24.9162 35.1896 24.8707 34.9784 24.9682C34.7687 25.0673 34.6436 25.2883 34.6696 25.5191C34.9329 27.903 33.8295 28.5903 32.5522 29.3866C31.5122 30.0333 30.3341 30.7662 30.3341 32.5017C30.3341 33.8066 30.924 34.9652 31.8356 35.7598C31.1677 36.4895 30.378 37.0842 29.6679 37.4791C29.2746 37.6968 29.1349 38.1925 29.3526 38.5841C29.5005 38.849 29.7784 39.0001 30.0627 39.0001C30.196 39.0001 30.3325 38.9676 30.4576 38.8977C31.418 38.3647 32.445 37.575 33.2786 36.587C34.1252 35.5242 34.6664 34.1478 34.6664 32.5001C34.6664 32.5001 35.3684 35.1862 34.9556 36.8031C37.1932 36.6438 38.971 34.7897 38.9629 32.596C38.9872 32.4578 39.5219 29.1623 35.5991 25.0836Z" fill="#AE9A91"/>
</g>
<path d="M65.5316 19V3.06722H68.5718L76.001 15.1368H75.2695V3.06722H78.2184V19H75.1552L67.7489 6.90754H68.4804V19H65.5316ZM82.0056 19L88.4062 3.06722H90.6235L97.0241 19H93.8009L89.5491 7.4333L85.2288 19H82.0056ZM86.2117 15.8912L87.1261 13.2395H91.9265L92.8866 15.8912H86.2117ZM102.334 19V5.71887H97.3968V3.06722H110.244V5.71887H105.329V19H102.334ZM120.055 19.3657C118.043 19.3657 116.519 18.8552 115.483 17.8342C114.462 16.8131 113.952 15.2816 113.952 13.2395V3.06722H116.9V12.8966C116.9 13.7196 116.984 14.4129 117.152 14.9768C117.335 15.5254 117.655 15.9445 118.112 16.2341C118.584 16.5084 119.232 16.6455 120.055 16.6455C120.878 16.6455 121.518 16.5084 121.975 16.2341C122.448 15.9445 122.775 15.5254 122.958 14.9768C123.141 14.4129 123.232 13.7272 123.232 12.9195V3.06722H126.181V13.1252C126.181 15.1978 125.663 16.7598 124.627 17.8113C123.59 18.8476 122.067 19.3657 120.055 19.3657ZM131.175 19V3.06722H136.432C137.728 3.06722 138.772 3.25771 139.564 3.63869C140.357 4.00444 140.936 4.53782 141.301 5.23883C141.682 5.9246 141.873 6.73991 141.873 7.68475C141.873 9.14773 141.454 10.2831 140.616 11.0908C139.793 11.8832 138.612 12.3251 137.072 12.4166C136.722 12.4318 136.364 12.4394 135.998 12.4394C135.632 12.4394 135.32 12.4394 135.061 12.4394H134.124V19H131.175ZM139.838 19L135.838 12.0966L138.855 11.7308L143.244 19H139.838ZM134.124 9.78779H136.135C136.638 9.78779 137.095 9.73445 137.507 9.62778C137.933 9.50586 138.276 9.30013 138.535 9.01058C138.795 8.70579 138.924 8.27909 138.924 7.73047C138.924 7.16661 138.795 6.73991 138.535 6.45036C138.276 6.16081 137.933 5.97032 137.507 5.87889C137.095 5.77221 136.638 5.71887 136.135 5.71887H134.124V9.78779ZM145.885 19L152.286 3.06722H154.503L160.904 19H157.681L153.429 7.4333L149.108 19H145.885ZM150.091 15.8912L151.006 13.2395H155.806L156.766 15.8912H150.091ZM164.7 19V3.06722H167.648V16.3483H174.438V19H164.7ZM64.1829 49L70.5834 33.0672H72.8007L79.2013 49H75.9782L71.7264 37.4333L67.406 49H64.1829ZM68.3889 45.8912L69.3033 43.2395H74.1037L75.0638 45.8912H68.3889ZM82.9972 49V33.0672H88.2547C90.053 33.0672 91.4093 33.4558 92.3237 34.233C93.238 34.995 93.6952 36.1456 93.6952 37.6848C93.6952 39.2239 93.2304 40.3974 92.3008 41.2051C91.3712 42.0127 90.0225 42.4166 88.2547 42.4166H85.9231V49H82.9972ZM85.9231 39.7878H87.9576C88.8415 39.7878 89.5272 39.6354 90.0149 39.3306C90.5026 39.0106 90.7464 38.4696 90.7464 37.7076C90.7464 36.9761 90.5102 36.4656 90.0378 36.1761C89.5806 35.8713 88.8872 35.7189 87.9576 35.7189H85.9231V39.7878ZM104.89 49.3657C103.382 49.3657 102.048 49.0229 100.89 48.3371C99.7472 47.6361 98.8556 46.6608 98.2156 45.4111C97.5755 44.1615 97.2555 42.7061 97.2555 41.045C97.2555 39.3687 97.5755 37.9057 98.2156 36.6561C98.8556 35.4065 99.7472 34.4388 100.89 33.753C102.048 33.052 103.382 32.7015 104.89 32.7015C106.414 32.7015 107.748 33.052 108.891 33.753C110.049 34.4388 110.948 35.4065 111.588 36.6561C112.228 37.9057 112.548 39.3687 112.548 41.045C112.548 42.7061 112.221 44.1615 111.565 45.4111C110.925 46.6608 110.026 47.6361 108.868 48.3371C107.725 49.0229 106.399 49.3657 104.89 49.3657ZM104.868 46.5312C105.843 46.5312 106.673 46.3102 107.359 45.8683C108.06 45.4111 108.601 44.7711 108.982 43.9481C109.363 43.1252 109.554 42.1575 109.554 41.045C109.554 39.9173 109.363 38.942 108.982 38.1191C108.601 37.2961 108.06 36.6637 107.359 36.2218C106.673 35.7646 105.843 35.536 104.868 35.536C103.938 35.536 103.115 35.757 102.399 36.1989C101.698 36.6409 101.157 37.2733 100.776 38.0962C100.41 38.9191 100.227 39.9021 100.227 41.045C100.227 42.1728 100.41 43.1481 100.776 43.971C101.157 44.7939 101.698 45.4264 102.399 45.8683C103.115 46.3102 103.938 46.5312 104.868 46.5312ZM120.135 49V35.7189H115.197V33.0672H128.044V35.7189H123.129V49H120.135ZM131.889 49V33.0672H134.838V39.4449H141.719V33.0672H144.667V49H141.719V42.1651H134.838V49H131.889ZM149.801 49V33.0672H160.408V35.7189H152.75V39.5135H159.905V42.1423H152.75V46.3483H160.408V49H149.801ZM172.029 49.3657C170.521 49.3657 169.187 49.0152 168.029 48.3142C166.886 47.6132 165.995 46.6379 165.355 45.3883C164.714 44.1386 164.394 42.6833 164.394 41.0222C164.394 39.3611 164.714 37.9133 165.355 36.679C165.995 35.4293 166.886 34.454 168.029 33.753C169.187 33.052 170.521 32.7015 172.029 32.7015C173.721 32.7015 175.176 33.1282 176.395 33.9816C177.63 34.8197 178.514 35.9779 179.047 37.4562L176.258 38.4848C175.923 37.5552 175.39 36.8313 174.658 36.3132C173.942 35.7951 173.066 35.536 172.029 35.536C171.085 35.536 170.254 35.757 169.538 36.1989C168.837 36.6409 168.296 37.2733 167.915 38.0962C167.549 38.9039 167.366 39.8792 167.366 41.0222C167.366 42.1651 167.549 43.1481 167.915 43.971C168.296 44.7939 168.837 45.4264 169.538 45.8683C170.254 46.3102 171.085 46.5312 172.029 46.5312C173.066 46.5312 173.942 46.2721 174.658 45.754C175.39 45.2359 175.923 44.512 176.258 43.5824L179.047 44.5882C178.514 46.0664 177.63 47.2322 176.395 48.0856C175.176 48.939 173.721 49.3657 172.029 49.3657ZM181.709 49L188.11 33.0672H190.327L196.728 49H193.505L189.253 37.4333L184.933 49H181.709ZM185.916 45.8912L186.83 43.2395H191.63L192.59 45.8912H185.916ZM200.524 49V33.0672H205.781C207.077 33.0672 208.121 33.2577 208.913 33.6387C209.705 34.0044 210.285 34.5378 210.65 35.2388C211.031 35.9246 211.222 36.7399 211.222 37.6848C211.222 39.1477 210.803 40.2831 209.965 41.0908C209.142 41.8832 207.961 42.3251 206.421 42.4166C206.071 42.4318 205.713 42.4394 205.347 42.4394C204.981 42.4394 204.669 42.4394 204.41 42.4394H203.473V49H200.524ZM209.187 49L205.187 42.0966L208.204 41.7308L212.593 49H209.187ZM203.473 39.7878H205.484C205.987 39.7878 206.444 39.7345 206.856 39.6278C207.282 39.5059 207.625 39.3001 207.884 39.0106C208.143 38.7058 208.273 38.2791 208.273 37.7305C208.273 37.1666 208.143 36.7399 207.884 36.4504C207.625 36.1608 207.282 35.9703 206.856 35.8789C206.444 35.7722 205.987 35.7189 205.484 35.7189H203.473V39.7878ZM219.739 49V42.7595L214.138 33.0672H217.521L221.133 39.8335L224.882 33.0672H228.242L222.688 42.7595V49H219.739Z" fill="white"/>
<defs>
<clipPath id="clip0_1_47">
<rect width="52" height="52" fill="white"/>
</clipPath>
</defs>
</svg>
