<svg width="14" height="13" viewBox="0 0 14 13" fill="none" xmlns="http://www.w3.org/2000/svg">
<g clip-path="url(#clip0_2003_181)">
<path d="M7.28358 12.947C10.8044 12.947 13.6586 10.0928 13.6586 6.57194C13.6586 3.05108 10.8044 0.196869 7.28358 0.196869C3.76272 0.196869 0.908508 3.05108 0.908508 6.57194C0.908508 10.0928 3.76272 12.947 7.28358 12.947Z" fill="#FFC10E"/>
<path d="M5.81392 3.15555C5.4337 3.15555 5.08049 3.34096 4.86818 3.65142L4.82438 3.70708L4.79508 3.66974C4.58518 3.34793 4.23136 3.15566 3.84724 3.15566C3.1918 3.15566 2.71619 3.63141 2.71619 4.28663C2.71619 5.25411 4.46775 6.68012 4.59549 6.78278C4.65578 6.84046 4.73471 6.87218 4.81846 6.87218C4.90221 6.87218 4.98114 6.84057 5.04143 6.7827C5.16957 6.67921 6.94489 5.23086 6.94489 4.28663C6.94489 3.6313 6.46925 3.15555 5.81392 3.15555Z" fill="#ED3533"/>
<path d="M10.7851 3.15555C10.4049 3.15555 10.0517 3.34096 9.83937 3.65142L9.79557 3.70708L9.76627 3.66974C9.55637 3.34793 9.20255 3.15566 8.81843 3.15566C8.16299 3.15566 7.68738 3.63141 7.68738 4.28663C7.68738 5.25411 9.43894 6.68012 9.56668 6.78278C9.62697 6.84046 9.7059 6.87218 9.78965 6.87218C9.87329 6.87218 9.95222 6.84057 10.0126 6.7827C10.1407 6.67931 11.916 5.23086 11.916 4.28663C11.9161 3.6313 11.4404 3.15555 10.7851 3.15555Z" fill="#ED3533"/>
<path d="M10.153 8.72117C8.55817 10.3441 5.99215 10.3314 4.41061 8.69701C4.18463 8.46346 3.82908 8.81971 4.05477 9.05285C5.82414 10.8814 8.72629 10.8912 10.5088 9.07701C10.7364 8.84548 10.3807 8.48942 10.153 8.72117Z" fill="#333333"/>
</g>
<defs>
<clipPath id="clip0_2003_181">
<rect width="12.7501" height="12.7501" fill="white" transform="translate(0.912354 0.196747)"/>
</clipPath>
</defs>
</svg>
