<svg width="134" height="57" viewBox="0 0 134 57" fill="none" xmlns="http://www.w3.org/2000/svg">
<path d="M0.212041 43.0806V0.636687H7.80878V40.8073L4.38449 36.8075H23.8943V43.0806H0.212041ZM44.9939 43.6849C41.7711 43.6849 38.9319 43.0134 36.4764 41.6706C34.0209 40.3085 32.0929 38.4285 30.6925 36.0306C29.3113 33.6326 28.6207 30.8893 28.6207 27.8008C28.6207 24.693 29.3113 21.9593 30.6925 19.5997C32.0929 17.221 34.0209 15.3602 36.4764 14.0173C38.9319 12.6744 41.7711 12.003 44.9939 12.003C48.2168 12.003 51.056 12.6744 53.5115 14.0173C55.967 15.3602 57.8854 17.221 59.2666 19.5997C60.667 21.9593 61.3672 24.693 61.3672 27.8008C61.3672 30.8893 60.667 33.6326 59.2666 36.0306C57.8854 38.4285 55.967 40.3085 53.5115 41.6706C51.056 43.0134 48.2168 43.6849 44.9939 43.6849ZM44.9939 37.4981C46.7396 37.4981 48.2647 37.0953 49.5692 36.2895C50.8737 35.4838 51.8905 34.3616 52.6194 32.9228C53.3484 31.4649 53.7129 29.7575 53.7129 27.8008C53.7129 25.844 53.3484 24.1559 52.6194 22.7363C51.8905 21.2975 50.8737 20.1849 49.5692 19.3983C48.2647 18.6118 46.7396 18.2185 44.9939 18.2185C43.2674 18.2185 41.7423 18.6118 40.4186 19.3983C39.1141 20.1849 38.0974 21.2975 37.3684 22.7363C36.6394 24.1559 36.275 25.844 36.275 27.8008C36.275 29.7575 36.6394 31.4649 37.3684 32.9228C38.0974 34.3616 39.1141 35.4838 40.4186 36.2895C41.7423 37.0953 43.2674 37.4981 44.9939 37.4981ZM88.1743 40.0591C89.9775 40.2318 91.5602 40.5675 92.9222 41.0663C94.2843 41.5651 95.349 42.3036 96.1163 43.282C96.8837 44.2795 97.2673 45.6032 97.2673 47.253C97.2673 49.0946 96.6439 50.6869 95.3969 52.0298C94.15 53.3726 92.318 54.4085 89.9008 55.1375C87.5029 55.8665 84.5486 56.231 81.038 56.231C75.9351 56.231 72.012 55.4924 69.2688 54.0153C66.5255 52.5573 65.1539 50.5718 65.1539 48.0587C65.1539 47.3489 65.2402 46.7063 65.4129 46.1308C65.5855 45.5553 65.7965 45.0757 66.0459 44.692L72.9808 45.6991C72.8657 45.8526 72.7506 46.0924 72.6355 46.4185C72.5204 46.7638 72.4629 47.1763 72.4629 47.6559C72.4629 48.8453 73.259 49.6989 74.8512 50.2169C76.4626 50.754 78.6016 51.0226 81.2682 51.0226C83.2249 51.0226 84.8555 50.8883 86.16 50.6198C87.4837 50.3512 88.4812 49.9675 89.1527 49.4687C89.8433 48.97 90.1886 48.3849 90.1886 47.7134C90.1886 46.7159 89.7378 46.0732 88.8361 45.7855C87.9345 45.4977 86.8602 45.3059 85.6133 45.21L74.0167 44.1453C71.9449 43.9342 70.2375 43.3204 68.8947 42.3036C67.571 41.2869 66.9092 39.944 66.9092 38.2751C66.9092 37.2583 67.1778 36.3183 67.7149 35.4551C68.2712 34.5918 68.9043 33.8724 69.6141 33.2969C70.3239 32.7022 70.9282 32.3377 71.4269 32.2034L75.7433 34.3328C75.3404 34.3904 74.8608 34.6493 74.3045 35.1097C73.7673 35.5702 73.4988 36.1169 73.4988 36.75C73.4988 37.3446 73.7673 37.8434 74.3045 38.2463C74.8416 38.63 75.8775 38.8985 77.4122 39.052L88.1743 40.0591ZM91.5986 12.521H98.3896L95.6271 24.3765C95.1092 26.6018 94.2747 28.5969 93.1237 30.3618C91.9727 32.1267 90.438 33.5175 88.5196 34.5342C86.6012 35.551 84.1841 36.0593 81.2682 36.0593C78.2371 36.0593 75.6186 35.5702 73.4124 34.5918C71.2255 33.5942 69.5373 32.2034 68.348 30.4193C67.1586 28.6161 66.5639 26.5442 66.5639 24.2038C66.5639 21.8059 67.1682 19.6957 68.3767 17.8732C69.6045 16.0316 71.2831 14.5928 73.4124 13.5569C75.561 12.521 77.9878 12.003 80.6927 12.003C82.8796 12.003 84.8459 12.3675 86.5916 13.0965C88.3373 13.8063 89.7282 14.7367 90.7641 15.8877C91.8192 17.0387 92.3851 18.2665 92.4618 19.571L90.7641 19.8875L91.5986 12.521ZM81.2394 30.2179C82.7165 30.2179 83.9922 29.9781 85.0665 29.4985C86.1408 29.0189 86.9753 28.3283 87.57 27.4267C88.1647 26.5059 88.462 25.3932 88.462 24.0887C88.462 22.8034 88.1647 21.7004 87.57 20.7795C86.9753 19.8587 86.1408 19.1585 85.0665 18.6789C83.9922 18.1802 82.7261 17.9308 81.2682 17.9308C79.8486 17.9308 78.592 18.1802 77.4986 18.6789C76.4051 19.1777 75.5418 19.8971 74.9088 20.8371C74.2949 21.7579 73.988 22.861 73.988 24.1463C73.988 25.4316 74.2853 26.5346 74.88 27.4555C75.4939 28.3571 76.338 29.0477 77.4122 29.5273C78.5057 29.9877 79.7814 30.2179 81.2394 30.2179ZM117.27 43.6849C114.047 43.6849 111.208 43.0134 108.752 41.6706C106.297 40.3085 104.369 38.4285 102.968 36.0306C101.587 33.6326 100.897 30.8893 100.897 27.8008C100.897 24.693 101.587 21.9593 102.968 19.5997C104.369 17.221 106.297 15.3602 108.752 14.0173C111.208 12.6744 114.047 12.003 117.27 12.003C120.493 12.003 123.332 12.6744 125.787 14.0173C128.243 15.3602 130.161 17.221 131.543 19.5997C132.943 21.9593 133.643 24.693 133.643 27.8008C133.643 30.8893 132.943 33.6326 131.543 36.0306C130.161 38.4285 128.243 40.3085 125.787 41.6706C123.332 43.0134 120.493 43.6849 117.27 43.6849ZM117.27 37.4981C119.016 37.4981 120.541 37.0953 121.845 36.2895C123.15 35.4838 124.166 34.3616 124.895 32.9228C125.624 31.4649 125.989 29.7575 125.989 27.8008C125.989 25.844 125.624 24.1559 124.895 22.7363C124.166 21.2975 123.15 20.1849 121.845 19.3983C120.541 18.6118 119.016 18.2185 117.27 18.2185C115.543 18.2185 114.018 18.6118 112.695 19.3983C111.39 20.1849 110.373 21.2975 109.644 22.7363C108.915 24.1559 108.551 25.844 108.551 27.8008C108.551 29.7575 108.915 31.4649 109.644 32.9228C110.373 34.3616 111.39 35.4838 112.695 36.2895C114.018 37.0953 115.543 37.4981 117.27 37.4981Z" fill="#262B31"/>
</svg>
